<?xml version="1.0" encoding="UTF-8"?>
<svg height="16px" viewBox="0 0 16 16" width="16px" xmlns="http://www.w3.org/2000/svg" xmlns:xlink="http://www.w3.org/1999/xlink">
    <filter id="a" height="100%" width="100%" x="0%" y="0%">
        <feColorMatrix color-interpolation-filters="sRGB" values="0 0 0 0 1 0 0 0 0 1 0 0 0 0 1 0 0 0 1 0"/>
    </filter>
    <mask id="b">
        <g filter="url(#a)">
            <rect fill-opacity="0.299" height="19.2" width="19.2" x="-1.6" y="-1.6"/>
        </g>
    </mask>
    <linearGradient id="c" gradientTransform="matrix(0.5 -0.866025 0.866025 0.5 0.250056 0.814641)" gradientUnits="userSpaceOnUse" x1="-9.561734" x2="-10.02703" y1="110.850754" y2="104.293419">
        <stop offset="0"/>
        <stop offset="1" stop-opacity="0"/>
    </linearGradient>
    <clipPath id="d">
        <rect height="152" width="192"/>
    </clipPath>
    <path d="m 2 13 h 12 c 0.550781 0 1 0.449219 1 1 v 1 c 0 0.550781 -0.449219 1 -1 1 h -12 c -0.550781 0 -1 -0.449219 -1 -1 v -1 c 0 -0.550781 0.449219 -1 1 -1 z m 0 0"/>
    <path d="m 11 0 h 1 c 0.550781 0 1 0.449219 1 1 v 4 c 0 0.550781 -0.449219 1 -1 1 h -1 c -0.550781 0 -1 -0.449219 -1 -1 v -4 c 0 -0.550781 0.449219 -1 1 -1 z m 0 0"/>
    <path d="m 2 2 h 6 c 0.550781 0 1 0.449219 1 1 v 1 c 0 0.550781 -0.449219 1 -1 1 h -6 c -0.550781 0 -1 -0.449219 -1 -1 v -1 c 0 -0.550781 0.449219 -1 1 -1 z m 0 0"/>
    <path d="m 3 5 h 3 v 9 h -3 z m 0 0"/>
    <path d="m 14 9.5 c 0 1.378906 -1.121094 2.5 -2.5 2.5 s -2.5 -1.121094 -2.5 -2.5 s 1.121094 -2.5 2.5 -2.5 s 2.5 1.121094 2.5 2.5 z m 0 0"/>
    <path d="m 11.742188 10.257812 c 0.007812 0 0.015624 0.007813 0.015624 0.015626 v 0.347656 c 0 0.007812 -0.007812 0.015625 -0.015624 0.015625 c -0.011719 0 -0.015626 -0.007813 -0.015626 -0.015625 v -0.347656 c 0 -0.007813 0.003907 -0.015626 0.015626 -0.015626 z m 0 0"/>
    <g mask="url(#b)">
        <g clip-path="url(#d)" transform="matrix(1 0 0 1 -168 -16)">
            <path d="m 82.71875 59.660156 c 1.234375 -2.132812 3.28125 -3.257812 4.570312 -2.511718 l 9.890626 5.710937 c 1.292968 0.742187 1.339843 3.078125 0.109374 5.214844 c -1.234374 2.132812 -3.28125 3.257812 -4.570312 2.511719 l -9.890625 -5.710938 c -1.292969 -0.742188 -1.339844 -3.078125 -0.109375 -5.214844 z m 0 0" fill="url(#c)"/>
        </g>
    </g>
</svg>
