<?xml version="1.0" encoding="UTF-8"?>
<svg height="128px" viewBox="0 0 128 128" width="128px" xmlns="http://www.w3.org/2000/svg" xmlns:xlink="http://www.w3.org/1999/xlink">
    <filter id="a" height="100%" width="100%" x="0%" y="0%">
        <feColorMatrix color-interpolation-filters="sRGB" values="0 0 0 0 1 0 0 0 0 1 0 0 0 0 1 0 0 0 1 0"/>
    </filter>
    <linearGradient id="b" gradientUnits="userSpaceOnUse">
        <stop offset="0" stop-color="#26a269"/>
        <stop offset="0.0357143" stop-color="#57e389"/>
        <stop offset="0.0713653" stop-color="#26a269"/>
        <stop offset="0.928571" stop-color="#26a269"/>
        <stop offset="0.964286" stop-color="#57e389"/>
        <stop offset="1" stop-color="#26a269"/>
    </linearGradient>
    <linearGradient id="c" gradientTransform="matrix(0.250001 0 0 0.321804 -14.149053 252.063519)" x1="88.595886" x2="536.595886" xlink:href="#b" y1="-449.394012" y2="-449.394012"/>
    <linearGradient id="d" gradientUnits="userSpaceOnUse">
        <stop offset="0" stop-color="#c0bfbc"/>
        <stop offset="0.0557726" stop-color="#deddda"/>
        <stop offset="0.152462" stop-color="#c0bfbc"/>
        <stop offset="0.853026" stop-color="#c0bfbc"/>
        <stop offset="0.933919" stop-color="#deddda"/>
        <stop offset="1" stop-color="#c0bfbc"/>
    </linearGradient>
    <linearGradient id="e" gradientTransform="matrix(0.322996 0 0 0.562539 -122.566576 443.529227)" x1="432.869049" x2="536.596008" xlink:href="#d" y1="-674.241638" y2="-674.241638"/>
    <linearGradient id="f" gradientTransform="matrix(1.952739 0 0 1.047718 -229.176315 -261.221817)" gradientUnits="userSpaceOnUse" x1="145.034698" x2="179.818085" y1="319.53125" y2="354.314636">
        <stop offset="0"/>
        <stop offset="0.5" stop-color="#5e5c64"/>
        <stop offset="1"/>
    </linearGradient>
    <linearGradient id="g" gradientTransform="matrix(0.322996 0 0 0.562539 -68.566579 434.529223)" x1="432.869049" x2="536.596008" xlink:href="#d" y1="-674.241638" y2="-674.241638"/>
    <linearGradient id="h" gradientTransform="matrix(0.250001 0 0 0.321804 -14.149667 190.038323)" x1="88.595886" x2="536.595886" xlink:href="#b" y1="-449.394012" y2="-449.394012"/>
    <linearGradient id="i" gradientTransform="matrix(0.322996 0 0 0.562539 -68.566446 428.552541)" x1="432.820618" x2="536.596008" xlink:href="#d" y1="-710.580017" y2="-710.580017"/>
    <mask id="j">
        <g filter="url(#a)">
            <rect fill-opacity="0.299" height="153.6" width="153.6" x="-12.8" y="-12.8"/>
        </g>
    </mask>
    <linearGradient id="k" gradientTransform="matrix(0.5 -0.866025 0.866025 0.5 0.250056 0.814641)" gradientUnits="userSpaceOnUse" x1="-9.561734" x2="-10.02703" y1="110.850754" y2="104.293419">
        <stop offset="0"/>
        <stop offset="1" stop-opacity="0"/>
    </linearGradient>
    <clipPath id="l">
        <rect height="152" width="192"/>
    </clipPath>
    <linearGradient id="m" gradientTransform="matrix(0.322996 0 0 0.562539 -68.566449 429.724038)" x1="432.820618" x2="536.596008" xlink:href="#d" y1="-710.580017" y2="-710.580017"/>
    <path d="m 16 84.28125 h 96 c 4.417969 0 8 2.707031 8 6.050781 v 24.179688 c 0 3.339843 -3.582031 6.050781 -8 6.050781 h -96 c -4.417969 0 -8 -2.710938 -8 -6.050781 v -24.179688 c 0 -3.34375 3.582031 -6.050781 8 -6.050781 z m 0 0" fill="url(#c)"/>
    <path d="m 16 84.28125 h 96 c 4.417969 0 8 2.59375 8 5.792969 v 8.203125 c 0 3.199218 -3.582031 5.789062 -8 5.789062 h -96 c -4.417969 0 -8 -2.589844 -8 -5.789062 v -8.203125 c 0 -3.199219 3.582031 -5.792969 8 -5.792969 z m 0 0" fill="#33d17a"/>
    <path d="m 34 49.0625 c 9.25 0 16.75 2.46875 16.75 5.511719 v 38.914062 c 0 3.042969 -7.5 5.511719 -16.75 5.511719 s -16.75 -2.46875 -16.75 -5.511719 v -38.914062 c 0 -3.042969 7.5 -5.511719 16.75 -5.511719 z m 0 0" fill="url(#e)"/>
    <path d="m 121.960938 91.777344 c 0 10.066406 -15.203126 18.222656 -33.960938 18.222656 s -33.960938 -8.15625 -33.960938 -18.222656 c 0 -10.0625 15.203126 -18.21875 33.960938 -18.21875 s 33.960938 8.15625 33.960938 18.21875 z m 0 0" fill="url(#f)"/>
    <path d="m 97.675781 91.777344 c 0 2.867187 -4.332031 5.191406 -9.675781 5.191406 s -9.675781 -2.324219 -9.675781 -5.191406 c 0 -2.867188 4.332031 -5.191406 9.675781 -5.191406 s 9.675781 2.324218 9.675781 5.191406 z m 0 0" fill="#f66151"/>
    <path d="m 88 40.0625 c 9.25 0 16.75 2.46875 16.75 5.511719 v 38.914062 c 0 3.042969 -7.5 5.511719 -16.75 5.511719 s -16.75 -2.46875 -16.75 -5.511719 v -38.914062 c 0 -3.042969 7.5 -5.511719 16.75 -5.511719 z m 0 0" fill="url(#g)"/>
    <path d="m 16 22.257812 h 96 c 4.417969 0 8 2.707032 8 6.046876 v 24.179687 c 0 3.34375 -3.582031 6.050781 -8 6.050781 h -96 c -4.417969 0 -8 -2.707031 -8 -6.050781 v -24.179687 c 0 -3.339844 3.582031 -6.046876 8 -6.046876 z m 0 0" fill="url(#h)"/>
    <path d="m 16 22.257812 h 96 c 4.417969 0 8 2.589844 8 5.789063 v 8.203125 c 0 3.199219 -3.582031 5.792969 -8 5.792969 h -96 c -4.417969 0 -8 -2.59375 -8 -5.792969 v -8.203125 c 0 -3.199219 3.582031 -5.789063 8 -5.789063 z m 0 0" fill="#33d17a"/>
    <path d="m 87.625 6.6875 h 0.75 c 9.042969 0 16.375 2.507812 16.375 5.597656 v 18.945313 c 0 3.089843 -7.332031 5.597656 -16.375 5.597656 h -0.75 c -9.042969 0 -16.375 -2.507813 -16.375 -5.597656 v -18.945313 c 0 -3.089844 7.332031 -5.597656 16.375 -5.597656 z m 0 0" fill="url(#i)"/>
    <path d="m 87.824219 6.6875 h 0.351562 c 9.15625 0 16.574219 2.21875 16.574219 4.957031 v 1.050781 c 0 2.738282 -7.417969 4.957032 -16.574219 4.957032 h -0.351562 c -9.15625 0 -16.574219 -2.21875 -16.574219 -4.957032 v -1.050781 c 0 -2.738281 7.417969 -4.957031 16.574219 -4.957031 z m 0 0" fill="#deddda"/>
    <path d="m 94.820312 49.785156 c 0 3.765625 -3.054687 6.820313 -6.820312 6.820313 s -6.820312 -3.054688 -6.820312 -6.820313 s 3.054687 -6.820312 6.820312 -6.820312 s 6.820312 3.054687 6.820312 6.820312 z m 0 0" fill="#9a9996"/>
    <path d="m 21 12.648438 c 1.234375 -2.136719 3.28125 -3.261719 4.570312 -2.515626 l 63.609376 36.726563 c 1.292968 0.742187 1.339843 3.078125 0.109374 5.214844 c -1.234374 2.132812 -3.28125 3.257812 -4.570312 2.511719 l -63.609375 -36.722657 c -1.292969 -0.746093 -1.339844 -3.082031 -0.109375 -5.214843 z m 0 0" fill="#c0bfbc"/>
    <path d="m 18.011719 13.953125 l 2.625 -4.546875 c 0.6875 -1.1875 1.914062 -1.761719 2.742187 -1.28125 l 23.609375 13.628906 c 0.828125 0.480469 0.945313 1.828125 0.261719 3.015625 l -2.628906 4.546875 c -0.683594 1.1875 -1.910156 1.761719 -2.738282 1.285156 l -23.613281 -13.632812 c -0.828125 -0.480469 -0.941406 -1.828125 -0.257812 -3.015625 z m 0 0" fill="#9a9996"/>
    <g mask="url(#j)">
        <g clip-path="url(#l)" transform="matrix(1 0 0 1 -8 -16)">
            <path d="m 82.71875 59.660156 c 1.234375 -2.132812 3.28125 -3.257812 4.570312 -2.511718 l 9.890626 5.710937 c 1.292968 0.742187 1.339843 3.078125 0.109374 5.214844 c -1.234374 2.132812 -3.28125 3.257812 -4.570312 2.511719 l -9.890625 -5.710938 c -1.292969 -0.742188 -1.339844 -3.078125 -0.109375 -5.214844 z m 0 0" fill="url(#k)"/>
        </g>
    </g>
    <path d="m 94.820312 50.738281 c 0 3.769531 -3.054687 6.820313 -6.820312 6.820313 s -6.820312 -3.050782 -6.820312 -6.820313 c 0 -3.765625 3.054687 -6.820312 6.820312 -6.820312 s 6.820312 3.054687 6.820312 6.820312 z m 0 0" fill="#c0bfbc"/>
    <path d="m 87.625 7.859375 h 0.75 c 9.042969 0 16.375 2.507813 16.375 5.597656 v 18.945313 c 0 3.089844 -7.332031 5.597656 -16.375 5.597656 h -0.75 c -9.042969 0 -16.375 -2.507812 -16.375 -5.597656 v -18.945313 c 0 -3.089843 7.332031 -5.597656 16.375 -5.597656 z m 0 0" fill="url(#m)"/>
    <path d="m 87.824219 7.859375 h 0.351562 c 9.15625 0 16.574219 2.21875 16.574219 4.957031 v 1.050782 c 0 2.738281 -7.417969 4.957031 -16.574219 4.957031 h -0.351562 c -9.15625 0 -16.574219 -2.21875 -16.574219 -4.957031 v -1.050782 c 0 -2.738281 7.417969 -4.957031 16.574219 -4.957031 z m 0 0" fill="#deddda"/>
</svg>
